<svg width="22" height="22" viewBox="0 0 22 22" fill="none" xmlns="http://www.w3.org/2000/svg">
<path d="M11 0.166656C5.03079 0.166656 0.166626 5.03082 0.166626 11C0.166626 16.9692 5.03079 21.8333 11 21.8333C16.9691 21.8333 21.8333 16.9692 21.8333 11C21.8333 5.03082 16.9691 0.166656 11 0.166656ZM14.0225 11.5742L10.1983 15.3983C10.0358 15.5608 9.82996 15.6367 9.62413 15.6367C9.41829 15.6367 9.21246 15.5608 9.04996 15.3983C8.89886 15.2454 8.81412 15.0391 8.81412 14.8242C8.81412 14.6092 8.89886 14.4029 9.04996 14.25L12.3 11L9.04996 7.74999C8.89886 7.59709 8.81412 7.39079 8.81412 7.17582C8.81412 6.96086 8.89886 6.75456 9.04996 6.60166C9.36413 6.28749 9.88413 6.28749 10.1983 6.60166L14.0225 10.4258C14.3475 10.74 14.3475 11.26 14.0225 11.5742Z" fill="#205DA8"/>
</svg>
