<svg width="21" height="21" viewBox="0 0 21 21" fill="none" xmlns="http://www.w3.org/2000/svg">
<path d="M14.3586 3.49999C16.0561 3.49999 17.4211 4.87374 17.4211 6.56249C17.4211 8.21624 16.1086 9.56374 14.4724 9.62499C14.3968 9.61624 14.3205 9.61624 14.2449 9.62499M16.0474 17.5C16.6774 17.3687 17.2724 17.115 17.7624 16.7387C19.1274 15.715 19.1274 14.0262 17.7624 13.0025C17.2811 12.635 16.6949 12.39 16.0736 12.25M8.01488 9.51124C7.92738 9.50249 7.82238 9.50249 7.72613 9.51124C6.72181 9.47714 5.77019 9.05347 5.07281 8.32996C4.37542 7.60644 3.98703 6.63989 3.98988 5.63499C3.98988 3.49124 5.72238 1.74999 7.87488 1.74999C8.90409 1.73143 9.89852 2.12247 10.6394 2.8371C11.3803 3.55173 11.8069 4.53141 11.8255 5.56062C11.8441 6.58982 11.453 7.58425 10.7384 8.32513C10.0238 9.06602 9.04409 9.49268 8.01488 9.51124ZM3.63988 12.74C1.52238 14.1575 1.52238 16.4675 3.63988 17.8762C6.04613 19.4862 9.99238 19.4862 12.3986 17.8762C14.5161 16.4587 14.5161 14.1487 12.3986 12.74C10.0011 11.1387 6.05488 11.1387 3.63988 12.74Z" stroke="#205DA8" stroke-width="1.5" stroke-linecap="round" stroke-linejoin="round"/>
</svg>
