<svg width="22" height="22" viewBox="0 0 22 22" fill="none" xmlns="http://www.w3.org/2000/svg">
<path d="M8.25016 20.1667H13.7502C18.3335 20.1667 20.1668 18.3333 20.1668 13.75V8.25001C20.1668 3.66668 18.3335 1.83334 13.7502 1.83334H8.25016C3.66683 1.83334 1.8335 3.66668 1.8335 8.25001V13.75C1.8335 18.3333 3.66683 20.1667 8.25016 20.1667Z" stroke="#0F172A" stroke-width="1.2" stroke-linecap="round" stroke-linejoin="round"/>
<path d="M14.2083 16.9583C15.2167 16.9583 16.0417 16.1333 16.0417 15.125V6.87499C16.0417 5.86666 15.2167 5.04166 14.2083 5.04166C13.2 5.04166 12.375 5.86666 12.375 6.87499V15.125C12.375 16.1333 13.1908 16.9583 14.2083 16.9583Z" stroke="#0F172A" stroke-width="1.2" stroke-linecap="round" stroke-linejoin="round"/>
<path d="M7.79183 16.9583C8.80016 16.9583 9.62516 16.1333 9.62516 15.125V11.9167C9.62516 10.9083 8.80016 10.0833 7.79183 10.0833C6.7835 10.0833 5.9585 10.9083 5.9585 11.9167V15.125C5.9585 16.1333 6.77433 16.9583 7.79183 16.9583Z" stroke="#0F172A" stroke-width="1.2" stroke-linecap="round" stroke-linejoin="round"/>
</svg>
