<svg width="22" height="21" viewBox="0 0 22 21" fill="none" xmlns="http://www.w3.org/2000/svg">
<path d="M7.33333 8.96875H14.6667M7.33333 12.0312H12.8333M18.3333 6.16V14.84C18.3333 16.17 18.205 17.115 17.875 17.7887C17.875 17.7975 17.8658 17.815 17.8567 17.8238C17.655 18.0688 17.3892 18.1913 17.0775 18.1913C16.5917 18.1913 16.005 17.885 15.3725 17.2375C14.6208 16.4675 13.4658 16.5288 12.8058 17.3688L11.88 18.5413C11.5133 19.0138 11.0275 19.25 10.5417 19.25C10.0558 19.25 9.57 19.0138 9.20333 18.5413L8.26833 17.36C7.6175 16.5288 6.47167 16.4675 5.72 17.2288L5.71083 17.2375C4.675 18.2963 3.75833 18.4538 3.22667 17.8238C3.21702 17.8141 3.21063 17.8019 3.20833 17.7887C2.87833 17.115 2.75 16.17 2.75 14.84V6.16C2.75 4.83 2.87833 3.885 3.20833 3.21125C3.20833 3.2025 3.20833 3.19375 3.22667 3.185C3.74917 2.54625 4.675 2.70375 5.71083 3.7625L5.72 3.77125C6.47167 4.5325 7.6175 4.47125 8.26833 3.64L9.20333 2.45875C9.57 1.98625 10.0558 1.75 10.5417 1.75C11.0275 1.75 11.5133 1.98625 11.88 2.45875L12.8058 3.63125C13.4658 4.47125 14.6208 4.5325 15.3725 3.7625C16.005 3.115 16.5917 2.80875 17.0775 2.80875C17.3892 2.80875 17.655 2.94 17.8567 3.185C17.875 3.19375 17.875 3.2025 17.875 3.21125C18.205 3.885 18.3333 4.83 18.3333 6.16Z" stroke="#0F172A" stroke-width="1.5" stroke-linecap="round" stroke-linejoin="round"/>
</svg>
