<svg width="20" height="20" viewBox="0 0 20 20" fill="none" xmlns="http://www.w3.org/2000/svg">
<path d="M10.2323 2.72803C7.58431 2.72803 5.43231 4.88003 5.43231 7.52803V9.84003C5.43231 10.328 5.22431 11.072 4.97631 11.488L4.05631 13.016C3.48831 13.96 3.88031 15.008 4.92031 15.36C8.36831 16.512 12.0883 16.512 15.5363 15.36C16.5043 15.04 16.9283 13.896 16.4003 13.016L15.4803 11.488C15.2403 11.072 15.0323 10.328 15.0323 9.84003V7.52803C15.0323 4.88803 12.8723 2.72803 10.2323 2.72803Z" stroke="#292D32" stroke-width="1.5" stroke-miterlimit="10" stroke-linecap="round"/>
<path d="M11.7123 2.96003C11.4643 2.88803 11.2083 2.83203 10.9443 2.80003C10.1763 2.70403 9.44029 2.76003 8.75229 2.96003C8.98429 2.36803 9.56029 1.95203 10.2323 1.95203C10.9043 1.95203 11.4803 2.36803 11.7123 2.96003Z" stroke="#292D32" stroke-width="1.5" stroke-miterlimit="10" stroke-linecap="round" stroke-linejoin="round"/>
<path d="M12.6323 15.648C12.6323 16.968 11.5523 18.048 10.2323 18.048C9.57631 18.048 8.96831 17.776 8.53631 17.344C8.10431 16.912 7.83231 16.304 7.83231 15.648" stroke="#292D32" stroke-width="1.5" stroke-miterlimit="10"/>
</svg>
