<svg width="21" height="21" viewBox="0 0 21 21" fill="none" xmlns="http://www.w3.org/2000/svg">
<path d="M17.6429 6.35833C17.6262 6.35833 17.6012 6.35833 17.5762 6.35833C13.1679 5.91667 8.76787 5.75 4.40954 6.19167L2.70954 6.35833C2.35954 6.39167 2.05121 6.14167 2.01787 5.79167C1.98454 5.44167 2.23454 5.14167 2.57621 5.10833L4.27621 4.94167C8.70954 4.49167 13.2012 4.66667 17.7012 5.10833C18.0429 5.14167 18.2929 5.45 18.2595 5.79167C18.2345 6.11667 17.9595 6.35833 17.6429 6.35833Z" fill="white"/>
<path d="M7.2262 5.51666C7.19287 5.51666 7.15954 5.51666 7.11787 5.50832C6.78454 5.44999 6.5512 5.12499 6.60954 4.79166L6.79287 3.69999C6.9262 2.89999 7.10954 1.79166 9.0512 1.79166H11.2345C13.1845 1.79166 13.3679 2.94166 13.4929 3.70832L13.6762 4.79166C13.7345 5.13332 13.5012 5.45832 13.1679 5.50832C12.8262 5.56666 12.5012 5.33332 12.4512 4.99999L12.2679 3.91666C12.1512 3.19166 12.1262 3.04999 11.2429 3.04999H9.05954C8.1762 3.04999 8.15954 3.16666 8.03454 3.90832L7.84287 4.99166C7.79287 5.29999 7.5262 5.51666 7.2262 5.51666Z" fill="white"/>
<path d="M12.8178 19.7083H7.46782C4.55949 19.7083 4.44282 18.1 4.35115 16.8L3.80949 8.40833C3.78449 8.06667 4.05115 7.76667 4.39282 7.74167C4.74282 7.725 5.03449 7.98334 5.05949 8.325L5.60115 16.7167C5.69282 17.9833 5.72615 18.4583 7.46782 18.4583H12.8178C14.5678 18.4583 14.6012 17.9833 14.6845 16.7167L15.2262 8.325C15.2512 7.98334 15.5512 7.725 15.8928 7.74167C16.2345 7.76667 16.5012 8.05833 16.4762 8.40833L15.9345 16.8C15.8428 18.1 15.7262 19.7083 12.8178 19.7083Z" fill="white"/>
<path d="M11.5262 15.125H8.75122C8.40955 15.125 8.12622 14.8417 8.12622 14.5C8.12622 14.1583 8.40955 13.875 8.75122 13.875H11.5262C11.8679 13.875 12.1512 14.1583 12.1512 14.5C12.1512 14.8417 11.8679 15.125 11.5262 15.125Z" fill="white"/>
<path d="M12.2262 11.7917H8.05957C7.7179 11.7917 7.43457 11.5083 7.43457 11.1667C7.43457 10.825 7.7179 10.5417 8.05957 10.5417H12.2262C12.5679 10.5417 12.8512 10.825 12.8512 11.1667C12.8512 11.5083 12.5679 11.7917 12.2262 11.7917Z" fill="white"/>
</svg>
