<svg width="14" height="13" viewBox="0 0 14 13" fill="none" xmlns="http://www.w3.org/2000/svg">
<path d="M6.32078 2.62667L3.84744 0.153333C3.79782 0.104344 3.73888 0.0658062 3.67411 0.04C3.66744 0.04 3.66077 0.04 3.65411 0.0333333C3.60108 0.0120549 3.54458 0.00075429 3.48744 0C3.35411 0 3.22744 0.0533334 3.13411 0.146667L0.647441 2.62667C0.454108 2.82 0.454108 3.14 0.647441 3.33333C0.840775 3.52667 1.16077 3.52667 1.35411 3.33333L2.98744 1.7V12.5C2.98744 12.7733 3.21411 13 3.48744 13C3.76077 13 3.98744 12.7733 3.98744 12.5V1.70667L5.61411 3.33333C5.71411 3.43333 5.84078 3.48 5.96744 3.48C6.09411 3.48 6.22077 3.43333 6.32078 3.33333C6.51411 3.14 6.51411 2.82667 6.32078 2.62667ZM13.3521 9.66667C13.258 9.57368 13.1311 9.52153 12.9988 9.52153C12.8665 9.52153 12.7395 9.57368 12.6454 9.66667L11.0121 11.3V0.5C11.0121 0.226667 10.7854 0 10.5121 0C10.2388 0 10.0121 0.226667 10.0121 0.5V11.2933L8.38544 9.66667C8.29135 9.57368 8.1644 9.52153 8.03211 9.52153C7.89982 9.52153 7.77287 9.57368 7.67877 9.66667C7.48544 9.86 7.48544 10.18 7.67877 10.3733L10.1521 12.8467C10.1988 12.8933 10.2588 12.9333 10.3254 12.96C10.3321 12.96 10.3388 12.96 10.3454 12.9667C10.3988 12.9867 10.4588 13 10.5188 13C10.6521 13 10.7788 12.9467 10.8721 12.8533L13.3521 10.3733C13.5454 10.1733 13.5454 9.86 13.3521 9.66667Z" fill="#6A707D"/>
</svg>
