<svg width="21" height="21" viewBox="0 0 21 21" fill="none" xmlns="http://www.w3.org/2000/svg">
<path d="M18.0164 19.25C18.0164 15.8638 14.6476 13.125 10.5001 13.125C6.35264 13.125 2.98389 15.8638 2.98389 19.25M10.5001 10.5C11.6605 10.5 12.7733 10.0391 13.5937 9.21859C14.4142 8.39812 14.8751 7.28532 14.8751 6.125C14.8751 4.96468 14.4142 3.85188 13.5937 3.03141C12.7733 2.21094 11.6605 1.75 10.5001 1.75C9.33981 1.75 8.22702 2.21094 7.40654 3.03141C6.58607 3.85188 6.12514 4.96468 6.12514 6.125C6.12514 7.28532 6.58607 8.39812 7.40654 9.21859C8.22702 10.0391 9.33981 10.5 10.5001 10.5Z" stroke="#0F172A" stroke-width="1.5" stroke-linecap="round" stroke-linejoin="round"/>
</svg>
