<svg width="21" height="21" viewBox="0 0 21 21" fill="none" xmlns="http://www.w3.org/2000/svg">
<path d="M16.625 10.5V5.25C16.625 3.31625 16.625 1.75 13.125 1.75H7.875C4.375 1.75 4.375 3.31625 4.375 5.25V10.5M6.125 10.5C2.625 10.5 2.625 12.0662 2.625 14V14.875C2.625 17.29 2.625 19.25 7 19.25H14C17.5 19.25 18.375 17.29 18.375 14.875V14C18.375 12.0662 18.375 10.5 14.875 10.5C14 10.5 13.755 10.6838 13.3 11.025L12.4075 11.97C12.1621 12.231 11.8659 12.439 11.5371 12.5812C11.2083 12.7233 10.8539 12.7967 10.4956 12.7967C10.1374 12.7967 9.78296 12.7233 9.45415 12.5812C9.12534 12.439 8.82913 12.231 8.58375 11.97L7.7 11.025C7.245 10.6838 7 10.5 6.125 10.5Z" stroke="#0F172A" stroke-width="1.5" stroke-miterlimit="10" stroke-linecap="round" stroke-linejoin="round"/>
<path d="M9.23113 8.07625H12.1449M8.50488 5.45125H12.8799" stroke="#0F172A" stroke-width="1.5" stroke-linecap="round" stroke-linejoin="round"/>
</svg>
