<svg width="22" height="22" viewBox="0 0 22 22" fill="none" xmlns="http://www.w3.org/2000/svg">
<path d="M16.5 17.2883H15.8033C15.07 17.2883 14.3733 17.5725 13.86 18.0858L12.2925 19.635C11.5775 20.3408 10.4133 20.3408 9.69833 19.635L8.13083 18.0858C7.6175 17.5725 6.91167 17.2883 6.1875 17.2883H5.5C3.97833 17.2883 2.75 16.0692 2.75 14.5658V4.565C2.75 3.06167 3.97833 1.8425 5.5 1.8425H16.5C18.0217 1.8425 19.25 3.06167 19.25 4.565V14.5658C19.25 16.06 18.0217 17.2883 16.5 17.2883Z" stroke="#0F172A" stroke-width="1.5" stroke-miterlimit="10" stroke-linecap="round" stroke-linejoin="round"/>
<path d="M6.41675 8.39667C6.41675 7.54417 7.11341 6.8475 7.96591 6.8475C8.81841 6.8475 9.51508 7.54417 9.51508 8.39667C9.51508 10.12 7.06758 10.3033 6.52675 11.9442C6.41675 12.2833 6.70091 12.6225 7.05841 12.6225H9.51508M14.7034 12.6133V7.37917C14.7039 7.26335 14.6666 7.15053 14.5971 7.05787C14.5276 6.96521 14.4297 6.89778 14.3184 6.86583C14.2063 6.83417 14.087 6.83936 13.9781 6.88061C13.8692 6.92187 13.7764 6.99702 13.7134 7.095C13.0534 8.15833 12.3384 9.36833 11.7151 10.4317C11.6142 10.6058 11.6142 10.835 11.7151 11.0092C11.8159 11.1833 12.0084 11.2933 12.2192 11.2933H15.5834" stroke="#0F172A" stroke-width="1.5" stroke-linecap="round" stroke-linejoin="round"/>
</svg>
