<svg width="21" height="21" viewBox="0 0 21 21" fill="none" xmlns="http://www.w3.org/2000/svg">
<path d="M18.0159 19.25C18.0159 15.8638 14.6471 13.125 10.4996 13.125C6.35215 13.125 2.9834 15.8638 2.9834 19.25M10.4996 10.5C11.66 10.5 12.7728 10.0391 13.5932 9.21859C14.4137 8.39812 14.8746 7.28532 14.8746 6.125C14.8746 4.96468 14.4137 3.85188 13.5932 3.03141C12.7728 2.21094 11.66 1.75 10.4996 1.75C9.33933 1.75 8.22653 2.21094 7.40606 3.03141C6.58558 3.85188 6.12465 4.96468 6.12465 6.125C6.12465 7.28532 6.58558 8.39812 7.40606 9.21859C8.22653 10.0391 9.33933 10.5 10.4996 10.5Z" stroke="#205DA8" stroke-width="1.5" stroke-linecap="round" stroke-linejoin="round"/>
</svg>
